<svg width="800" height="265" viewBox="0 0 800 265" fill="none" xmlns="http://www.w3.org/2000/svg">
<g filter="url(#filter0_f_299_4727)">
<path d="M174.62 261C156.765 261 142.303 256.117 142.303 250.088C142.303 244.059 156.765 239.176 174.62 239.176H392.595C410.45 239.176 424.912 244.059 424.912 250.088C424.912 256.117 410.45 261 392.595 261H174.62ZM278.105 202.198C260.25 202.198 245.788 197.315 245.788 191.286C245.788 185.257 260.25 180.374 278.105 180.374H586.624C604.48 180.374 618.942 185.257 618.942 191.286C618.942 197.315 604.48 202.198 586.624 202.198H278.105ZM213.407 143.407C195.552 143.407 181.09 138.524 181.09 132.495C181.09 126.466 195.552 121.582 213.407 121.582H638.351C656.206 121.582 670.668 126.466 670.668 132.495C670.668 138.524 656.206 143.407 638.351 143.407H213.407ZM96.9832 84.5729C79.1279 84.5729 64.666 79.6897 64.666 73.6606C64.666 67.6316 79.1279 62.7484 96.9832 62.7484H586.593C604.448 62.7484 618.91 67.6316 618.91 73.6606C618.91 79.6897 604.448 84.5729 586.593 84.5729H96.9832ZM32.3171 25.8245C14.4618 25.8245 0 20.9413 0 14.9122C0 8.8832 14.4618 4 32.3171 4H767.683C785.538 4 800 8.8832 800 14.9122C800 20.9413 785.538 25.8245 767.683 25.8245H32.3171Z" fill="black" fill-opacity="0.3"/>
</g>
<defs>
<filter id="filter0_f_299_4727" x="-4" y="0" width="808" height="265" filterUnits="userSpaceOnUse" color-interpolation-filters="sRGB">
<feFlood flood-opacity="0" result="BackgroundImageFix"/>
<feBlend mode="normal" in="SourceGraphic" in2="BackgroundImageFix" result="shape"/>
<feGaussianBlur stdDeviation="2" result="effect1_foregroundBlur_299_4727"/>
</filter>
</defs>
</svg>
