<svg width="1440" height="583" viewBox="0 0 1440 583" fill="none" xmlns="http://www.w3.org/2000/svg">
<path d="M435.922 262.146C433.762 262.146 432.019 260.402 432.019 258.243V253.508C432.019 251.348 433.762 249.605 435.922 249.605H499.82C501.954 249.605 503.723 251.348 503.723 253.508V258.243C503.723 260.402 501.954 262.146 499.82 262.146H435.922Z" fill="white"/>
<path d="M499.794 253.508V258.243H435.895V253.508H499.794ZM499.794 245.702H435.895C431.603 245.702 428.09 249.189 428.09 253.508V258.243C428.09 262.562 431.603 266.048 435.895 266.048H499.794C504.113 266.048 507.6 262.562 507.6 258.243V253.508C507.6 249.189 504.113 245.702 499.794 245.702Z" fill="white"/>
<path d="M783.385 262.146C781.225 262.146 779.482 260.402 779.482 258.243V253.508C779.482 251.348 781.225 249.605 783.385 249.605H847.284C849.443 249.605 851.186 251.348 851.186 253.508V258.243C851.186 260.402 849.443 262.146 847.284 262.146H783.385Z" fill="white"/>
<path d="M847.284 253.508V258.243H783.385V253.508H847.284ZM847.284 245.702H783.385C779.066 245.702 775.579 249.189 775.579 253.508V258.243C775.579 262.562 779.066 266.048 783.385 266.048H847.284C851.603 266.048 855.089 262.562 855.089 258.243V253.508C855.089 249.189 851.603 245.702 847.284 245.702Z" fill="white"/>
<path d="M781.017 523.075C776.698 523.075 773.212 519.588 773.212 515.27V494.742C773.212 491.854 774.799 489.304 777.167 487.977V484.101C777.167 480.744 779.3 477.856 782.292 476.79V436.827H500.913V476.764C503.905 477.856 506.039 480.744 506.039 484.101V487.977C508.38 489.304 509.967 491.854 509.967 494.742V515.27C509.967 519.588 506.481 523.075 502.162 523.075H433.554C429.235 523.075 425.749 519.588 425.749 515.27V494.742C425.749 491.854 427.336 489.304 429.677 487.977V484.101C429.677 480.744 431.811 477.856 434.829 476.764V426.966H409.878C365.466 426.966 320.144 437.451 282.236 456.496C279.791 457.823 277.111 459.254 274.379 460.633C263.061 466.877 252.654 473.902 243.652 481.421C242.221 482.592 240.452 483.216 238.631 483.216C238.397 483.216 238.163 483.216 237.928 483.19C235.873 483.008 233.974 481.993 232.647 480.406L229.603 476.764C226.845 473.459 227.313 468.542 230.618 465.784C240.348 457.667 251.536 450.07 263.816 443.253C264.05 443.097 264.284 442.967 264.544 442.837L265.429 442.369C267.666 441.146 270.164 439.819 272.688 438.544C388.934 375.764 429.989 274.114 434.803 261.183V260.61C434.803 256.292 438.315 252.805 442.608 252.805H493.108C497.401 252.805 500.913 256.292 500.913 260.61V260.793C531.197 327.892 583.909 367.907 642.136 367.907H642.474C700.519 367.724 752.658 327.71 782.292 260.819V260.61C782.292 256.292 785.778 252.805 790.097 252.805H840.571C844.89 252.805 848.376 256.292 848.376 260.61V262.119C849.937 270.419 869.138 353.415 1024.46 438.206C1040.93 446.375 1056.1 456.106 1069.5 467.137C1072.83 469.895 1073.3 474.812 1070.57 478.143L1067.55 481.785C1066.01 483.658 1063.78 484.621 1061.51 484.621C1059.77 484.621 1058.03 484.049 1056.57 482.852C1047.8 475.645 1038.15 468.984 1027.87 463.078C1027.74 463.026 1027.61 462.948 1027.51 462.896C1023.21 460.659 1019.08 458.447 1014.99 456.21C961.552 429.802 904.184 426.966 881.991 426.966H848.376V476.764C851.368 477.856 853.502 480.744 853.502 484.101V487.977C855.869 489.304 857.457 491.854 857.457 494.742V515.27C857.457 519.562 853.97 523.075 849.651 523.075H781.017Z" fill="white"/>
<path d="M840.571 260.61V262.796C841.222 266.777 857.509 356.017 1020.87 445.126C1035.88 452.567 1050.69 461.778 1064.53 473.173L1061.54 476.816C1051.78 468.802 1041.56 461.908 1031.12 455.95L1031.1 455.976C1026.83 453.738 1022.69 451.501 1018.61 449.289C964.727 422.621 907.826 419.161 881.991 419.161H840.571V484.101H845.697V494.768H849.651V515.27H781.017V494.768H784.972V484.101H790.097V429.022H493.108V484.101H498.233V494.768H502.162V515.27H433.554V494.768H437.482V484.101H442.634V419.161H409.878C363.827 419.161 316.917 430.322 278.724 449.523C276.122 450.928 273.494 452.333 270.815 453.686C259.055 460.164 248.205 467.449 238.631 475.411L235.613 471.768C245.265 463.729 256.219 456.366 268.083 449.81V449.784C268.369 449.627 268.655 449.471 268.967 449.341C271.335 448.04 273.754 446.765 276.2 445.517C399.939 378.704 440.214 269.404 442.608 262.588V260.61H493.082V262.458C524.589 333.433 580.24 375.738 642.136 375.738C642.292 375.738 642.448 375.738 642.604 375.738C704.188 375.504 759.293 333.173 790.097 262.458V260.61H840.571ZM840.571 245H790.097C782.032 245 775.397 251.114 774.565 258.971C746.128 322.194 696.955 359.919 642.578 360.127C642.5 360.127 642.422 360.127 642.37 360.127H642.136C587.447 360.127 537.702 322.35 508.614 258.893C507.756 251.088 501.147 245 493.108 245H442.634C434.308 245 427.518 251.504 427.049 259.7C420.675 276.169 379.854 371.731 268.967 431.675C266.6 432.872 264.206 434.147 261.604 435.552L261.266 435.734L261.006 435.89C260.59 436.072 260.199 436.306 259.835 436.541C247.191 443.591 235.691 451.397 225.622 459.774C218.988 465.316 218.103 475.151 223.619 481.759L226.637 485.401C229.291 488.576 233.115 490.579 237.226 490.969C237.694 490.995 238.163 491.021 238.631 491.021C242.273 491.021 245.812 489.746 248.648 487.405C257.207 480.25 267.146 473.563 278.151 467.475C280.649 466.201 283.199 464.874 285.957 463.365C322.745 444.918 366.741 434.771 409.878 434.771H427.023V472.549C423.849 475.385 421.872 479.521 421.872 484.101V484.387C419.426 487.145 417.943 490.787 417.943 494.768V515.27C417.943 523.881 424.916 530.88 433.554 530.88H502.162C510.8 530.88 517.772 523.881 517.772 515.27V494.768C517.772 490.787 516.289 487.145 513.844 484.387V484.101C513.844 479.521 511.866 475.385 508.718 472.549V444.632H774.487V472.549C771.339 475.385 769.361 479.521 769.361 484.101V484.387C766.89 487.145 765.407 490.761 765.407 494.742V515.27C765.407 523.881 772.405 530.88 781.017 530.88H849.651C858.263 530.88 865.262 523.881 865.262 515.27V494.742C865.262 490.761 863.779 487.145 861.307 484.387V484.101C861.307 479.521 859.33 475.385 856.182 472.549V434.771H881.991C903.612 434.771 959.471 437.529 1011.4 463.13C1016.03 465.654 1020.01 467.788 1023.89 469.817C1023.99 469.869 1024.12 469.947 1024.23 469.999C1034.04 475.645 1043.25 481.993 1051.6 488.888C1054.51 491.281 1058.03 492.426 1061.51 492.426C1066.01 492.426 1070.49 490.501 1073.58 486.754L1076.58 483.086C1082.07 476.425 1081.1 466.591 1074.44 461.127C1060.63 449.731 1045.02 439.715 1028.08 431.285C946.384 386.665 903.924 342.539 882.693 313.348C862.478 285.587 857.196 265.788 856.182 261.287V260.61C856.182 251.999 849.209 245 840.571 245Z" fill="white"/>
<path d="M490.714 416.793H444.976V486.468H490.714V416.793Z" stroke="#10161D" stroke-width="2" stroke-miterlimit="10"/>
<path d="M490.714 262.978H444.976V276.793H490.714V262.978Z" stroke="#10161D" stroke-width="2" stroke-miterlimit="10"/>
<path d="M483.637 346.468H452.078V416.143H483.637V346.468Z" stroke="#10161D" stroke-width="2" stroke-miterlimit="10"/>
<path d="M483.637 276.767H452.078V346.442H483.637V276.767Z" stroke="#10161D" stroke-width="2" stroke-miterlimit="10"/>
<path d="M499.82 497.135H435.922V512.902H499.82V497.135Z" stroke="#10161D" stroke-width="2" stroke-miterlimit="10"/>
<path d="M495.866 486.468H439.85V497.109H495.866V486.468Z" stroke="#10161D" stroke-width="2" stroke-miterlimit="10"/>
<path d="M490.74 429.412H479.292" stroke="#10161D" stroke-width="2" stroke-miterlimit="10"/>
<path d="M444.976 441.64H457.594" stroke="#10161D" stroke-width="2" stroke-miterlimit="10"/>
<path d="M467.845 453.868H475.754" stroke="#10161D" stroke-width="2" stroke-miterlimit="10"/>
<path d="M479.292 473.59H490.74" stroke="#10161D" stroke-width="2" stroke-miterlimit="10"/>
<path d="M435.922 255.875H499.794" stroke="#10161D" stroke-width="2" stroke-miterlimit="10"/>
<path d="M838.23 416.793H792.465V486.468H838.23V416.793Z" stroke="#10161D" stroke-width="2" stroke-miterlimit="10"/>
<path d="M838.23 262.978H792.465V276.793H838.23V262.978Z" stroke="#10161D" stroke-width="2" stroke-miterlimit="10"/>
<path d="M831.127 346.468H799.568V416.143H831.127V346.468Z" stroke="#10161D" stroke-width="2" stroke-miterlimit="10"/>
<path d="M831.127 276.767H799.568V346.442H831.127V276.767Z" stroke="#10161D" stroke-width="2" stroke-miterlimit="10"/>
<path d="M847.284 497.135H783.385V512.902H847.284V497.135Z" stroke="#10161D" stroke-width="2" stroke-miterlimit="10"/>
<path d="M843.355 486.468H787.339V497.109H843.355V486.468Z" stroke="#10161D" stroke-width="2" stroke-miterlimit="10"/>
<path d="M838.204 429.412H826.782" stroke="#10161D" stroke-width="2" stroke-miterlimit="10"/>
<path d="M792.465 441.64H805.083" stroke="#10161D" stroke-width="2" stroke-miterlimit="10"/>
<path d="M815.334 453.868H823.218" stroke="#10161D" stroke-width="2" stroke-miterlimit="10"/>
<path d="M826.782 473.59H838.204" stroke="#10161D" stroke-width="2" stroke-miterlimit="10"/>
<path d="M783.385 255.875H847.284" stroke="#10161D" stroke-width="2" stroke-miterlimit="10"/>
<path d="M237.122 473.59C280.909 437.113 348.347 416.793 409.878 416.793H881.991C937.616 416.793 1009.79 431.181 1063.05 474.994" stroke="#10161D" stroke-width="2" stroke-miterlimit="10"/>
<path d="M490.74 262.978C558.386 416.143 725.808 416.793 792.465 262.978" stroke="#10161D" stroke-width="2" stroke-miterlimit="10"/>
<path d="M490.74 426.654H792.465" stroke="#10161D" stroke-width="2" stroke-miterlimit="10"/>
<path d="M444.975 262.978C444.975 262.978 405.143 382.58 269.149 451.891" stroke="#10161D" stroke-width="2" stroke-miterlimit="10"/>
<path d="M838.204 262.978C838.204 262.978 850.692 359.217 1032.22 453.868" stroke="#10161D" stroke-width="2" stroke-miterlimit="10"/>
<path d="M452.078 397.462H461.054" stroke="#10161D" stroke-width="2" stroke-miterlimit="10"/>
<path d="M467.845 386.535H475.754" stroke="#10161D" stroke-width="2" stroke-miterlimit="10"/>
<path d="M467.845 362.261H473.777" stroke="#10161D" stroke-width="2" stroke-miterlimit="10"/>
<path d="M452.078 354.586H461.054" stroke="#10161D" stroke-width="2" stroke-miterlimit="10"/>
<path d="M475.754 332.679H483.637" stroke="#10161D" stroke-width="2" stroke-miterlimit="10"/>
<path d="M465.79 315.533H473.777" stroke="#10161D" stroke-width="2" stroke-miterlimit="10"/>
<path d="M453.353 303.982H461.054" stroke="#10161D" stroke-width="2" stroke-miterlimit="10"/>
<path d="M471.799 289.204H483.637" stroke="#10161D" stroke-width="2" stroke-miterlimit="10"/>
<path d="M799.568 400.22H808.232" stroke="#10161D" stroke-width="2" stroke-miterlimit="10"/>
<path d="M823.218 387.602H831.127" stroke="#10161D" stroke-width="2" stroke-miterlimit="10"/>
<path d="M810.209 370.248H819.289" stroke="#10161D" stroke-width="2" stroke-miterlimit="10"/>
<path d="M799.568 333.98H814.736" stroke="#10161D" stroke-width="2" stroke-miterlimit="10"/>
<path d="M824.805 320.529H831.127" stroke="#10161D" stroke-width="2" stroke-miterlimit="10"/>
<path d="M811.796 307.936H819.289" stroke="#10161D" stroke-width="2" stroke-miterlimit="10"/>
<path d="M799.568 294.928H808.232" stroke="#10161D" stroke-width="2" stroke-miterlimit="10"/>
<path d="M824.805 284.286H831.127" stroke="#10161D" stroke-width="2" stroke-miterlimit="10"/>
<path d="M814.736 473.59H792.465" stroke="#10161D" stroke-miterlimit="10"/>
<path d="M829.384 453.738H838.204" stroke="#10161D" stroke-miterlimit="10"/>
<path d="M805.083 453.868H793.297" stroke="#10161D" stroke-miterlimit="10"/>
<path d="M812.42 441.64H838.204" stroke="#10161D" stroke-miterlimit="10"/>
<path d="M819.289 429.412H792.465" stroke="#10161D" stroke-miterlimit="10"/>
<path d="M818.144 400.22H831.127" stroke="#10161D" stroke-miterlimit="10"/>
<path d="M811.796 387.94H799.568" stroke="#10161D" stroke-miterlimit="10"/>
<path d="M824.805 370.248H831.127" stroke="#10161D" stroke-miterlimit="10"/>
<path d="M815.543 355.47H799.568" stroke="#10161D" stroke-miterlimit="10"/>
<path d="M821.5 333.98H831.127" stroke="#10161D" stroke-miterlimit="10"/>
<path d="M811.796 320.529H799.568" stroke="#10161D" stroke-miterlimit="10"/>
<path d="M824.805 307.936H831.127" stroke="#10161D" stroke-miterlimit="10"/>
<path d="M814.736 294.928H831.127" stroke="#10161D" stroke-miterlimit="10"/>
<path d="M811.796 284.286H799.568" stroke="#10161D" stroke-miterlimit="10"/>
<path d="M792.465 269.873H838.204" stroke="#10161D" stroke-miterlimit="10"/>
<path d="M490.74 434.537H792.465" stroke="#10161D" stroke-miterlimit="10"/>
<path d="M474.818 473.59H444.976" stroke="#10161D" stroke-miterlimit="10"/>
<path d="M480.333 453.868H490.74" stroke="#10161D" stroke-miterlimit="10"/>
<path d="M463.578 453.868H445.808" stroke="#10161D" stroke-miterlimit="10"/>
<path d="M463.578 441.64H490.74" stroke="#10161D" stroke-miterlimit="10"/>
<path d="M470.811 429.412H445.808" stroke="#10161D" stroke-miterlimit="10"/>
<path d="M465.79 397.462H483.638" stroke="#10161D" stroke-miterlimit="10"/>
<path d="M461.054 386.535H452.729" stroke="#10161D" stroke-miterlimit="10"/>
<path d="M461.054 373.006H482.493" stroke="#10161D" stroke-miterlimit="10"/>
<path d="M477.731 362.261H482.493" stroke="#10161D" stroke-miterlimit="10"/>
<path d="M466.726 354.586H483.637" stroke="#10161D" stroke-miterlimit="10"/>
<path d="M467.845 332.679H453.353" stroke="#10161D" stroke-miterlimit="10"/>
<path d="M477.731 315.533H483.637" stroke="#10161D" stroke-miterlimit="10"/>
<path d="M460.612 315.533H452.729" stroke="#10161D" stroke-miterlimit="10"/>
<path d="M466.726 303.982H484.678" stroke="#10161D" stroke-miterlimit="10"/>
<path d="M466.726 289.204H452.078" stroke="#10161D" stroke-miterlimit="10"/>
<path d="M444.976 269.873H489.804" stroke="#10161D" stroke-miterlimit="10"/>
<path d="M490.74 270.081C558.386 423.246 725.808 423.896 792.465 270.081" stroke="#10161D" stroke-miterlimit="10"/>
<path d="M287 498.67C285.34 498.67 284 497.33 284 495.67V386.84C284 385.18 285.34 383.84 287 383.84H291.75V343.73C291.75 342.07 293.09 340.73 294.75 340.73H298.53V310.78C298.53 309.13 299.87 307.78 301.53 307.78H301.92V285.6C301.92 283.94 303.26 282.6 304.92 282.6H308.22V276C308.22 274.34 309.56 273 311.22 273H320.78C322.44 273 323.78 274.34 323.78 276V282.6H327.08C328.74 282.6 330.08 283.94 330.08 285.6V307.78H330.47C332.13 307.78 333.47 309.13 333.47 310.78V340.73H337.26C338.91 340.73 340.26 342.07 340.26 343.73V383.84H345.01C346.66 383.84 348.01 385.18 348.01 386.84V495.67C348.01 497.33 346.66 498.67 345.01 498.67H287Z" fill="white"/>
<path d="M320.78 276V285.6H327.08V310.78H330.47V343.73H337.26V386.84H339.31H345.01V495.67H339.31H337.26H330.27H324.18H317.19H315.49H308.5H301.74H294.75H292.69H287V386.84H292.69H294.75V343.73H301.53V310.78H304.92V285.6H311.22V276H320.78ZM320.78 270H311.22C307.9 270 305.22 272.69 305.22 276V279.6H304.92C301.61 279.6 298.92 282.28 298.92 285.6V305.38C296.91 306.35 295.53 308.41 295.53 310.79V337.73H294.75C291.43 337.73 288.75 340.41 288.75 343.73V380.84H287C283.68 380.84 281 383.53 281 386.84V495.67C281 498.98 283.68 501.67 287 501.67H292.69H294.75H301.74H308.5H315.49H317.19H324.18H330.27H337.26H339.31H345.01C348.32 501.67 351.01 498.98 351.01 495.67V386.84C351.01 383.53 348.32 380.84 345.01 380.84H343.26V343.73C343.26 340.41 340.57 337.73 337.26 337.73H336.47V310.78C336.47 308.41 335.09 306.35 333.08 305.38V285.6C333.08 282.28 330.4 279.6 327.08 279.6H326.78V276C326.78 272.69 324.1 270 320.78 270Z" fill="white"/>
<path d="M344.1 387.75H287.91V494.76H344.1V387.75Z" stroke="#10161D" stroke-width="2" stroke-miterlimit="10"/>
<path d="M336.35 344.63H295.66V387.74H336.35V344.63Z" stroke="#10161D" stroke-width="2" stroke-miterlimit="10"/>
<path d="M329.57 311.69H302.44V344.63H329.57V311.69Z" stroke="#10161D" stroke-width="2" stroke-miterlimit="10"/>
<path d="M326.17 286.5H305.83V311.69H326.17V286.5Z" stroke="#10161D" stroke-width="2" stroke-miterlimit="10"/>
<path d="M319.88 276.91H312.13V286.51H319.88V276.91Z" stroke="#10161D" stroke-width="2" stroke-miterlimit="10"/>
<path d="M305.83 289.05H326.17" stroke="#10161D" stroke-miterlimit="10"/>
<path d="M309.82 293.65V301.76" stroke="#10161D" stroke-width="2" stroke-miterlimit="10"/>
<path d="M309.82 303.82V306.73" stroke="#10161D" stroke-width="2" stroke-miterlimit="10"/>
<path d="M312.85 293.65V301.76" stroke="#10161D" stroke-width="2" stroke-miterlimit="10"/>
<path d="M312.85 303.82V306.73" stroke="#10161D" stroke-width="2" stroke-miterlimit="10"/>
<path d="M315.88 293.65V301.76" stroke="#10161D" stroke-width="2" stroke-miterlimit="10"/>
<path d="M315.88 303.82V306.73" stroke="#10161D" stroke-width="2" stroke-miterlimit="10"/>
<path d="M318.91 293.65V301.76" stroke="#10161D" stroke-width="2" stroke-miterlimit="10"/>
<path d="M318.91 303.82V306.73" stroke="#10161D" stroke-width="2" stroke-miterlimit="10"/>
<path d="M321.94 293.65V301.76" stroke="#10161D" stroke-width="2" stroke-miterlimit="10"/>
<path d="M321.94 303.82V306.73" stroke="#10161D" stroke-width="2" stroke-miterlimit="10"/>
<path d="M305.83 315.69H310.67" stroke="#10161D" stroke-width="2" stroke-miterlimit="10"/>
<path d="M313.46 315.69H318.3" stroke="#10161D" stroke-width="2" stroke-miterlimit="10"/>
<path d="M321.1 315.69H325.94" stroke="#10161D" stroke-width="2" stroke-miterlimit="10"/>
<path d="M305.83 319.2H310.67" stroke="#10161D" stroke-width="2" stroke-miterlimit="10"/>
<path d="M313.46 319.2H318.3" stroke="#10161D" stroke-width="2" stroke-miterlimit="10"/>
<path d="M321.1 319.2H325.94" stroke="#10161D" stroke-width="2" stroke-miterlimit="10"/>
<path d="M305.83 322.71H310.67" stroke="#10161D" stroke-width="2" stroke-miterlimit="10"/>
<path d="M313.46 322.71H318.3" stroke="#10161D" stroke-width="2" stroke-miterlimit="10"/>
<path d="M321.1 322.71H325.94" stroke="#10161D" stroke-width="2" stroke-miterlimit="10"/>
<path d="M305.83 326.22H310.67" stroke="#10161D" stroke-width="2" stroke-miterlimit="10"/>
<path d="M313.46 326.22H318.3" stroke="#10161D" stroke-width="2" stroke-miterlimit="10"/>
<path d="M321.1 326.22H325.94" stroke="#10161D" stroke-width="2" stroke-miterlimit="10"/>
<path d="M305.83 329.74H310.67" stroke="#10161D" stroke-width="2" stroke-miterlimit="10"/>
<path d="M313.46 329.74H318.3" stroke="#10161D" stroke-width="2" stroke-miterlimit="10"/>
<path d="M321.1 329.74H325.94" stroke="#10161D" stroke-width="2" stroke-miterlimit="10"/>
<path d="M305.83 333.25H310.67" stroke="#10161D" stroke-width="2" stroke-miterlimit="10"/>
<path d="M313.46 333.25H318.3" stroke="#10161D" stroke-width="2" stroke-miterlimit="10"/>
<path d="M321.1 333.25H325.94" stroke="#10161D" stroke-width="2" stroke-miterlimit="10"/>
<path d="M305.83 336.76H310.67" stroke="#10161D" stroke-width="2" stroke-miterlimit="10"/>
<path d="M313.46 336.76H318.3" stroke="#10161D" stroke-width="2" stroke-miterlimit="10"/>
<path d="M321.1 336.76H325.94" stroke="#10161D" stroke-width="2" stroke-miterlimit="10"/>
<path d="M305.83 340.27H310.67" stroke="#10161D" stroke-width="2" stroke-miterlimit="10"/>
<path d="M313.46 340.27H318.3" stroke="#10161D" stroke-width="2" stroke-miterlimit="10"/>
<path d="M321.1 340.27H325.94" stroke="#10161D" stroke-width="2" stroke-miterlimit="10"/>
<path d="M301.34 349.72V354.2" stroke="#10161D" stroke-width="2" stroke-miterlimit="10"/>
<path d="M307.28 349.72V354.2" stroke="#10161D" stroke-width="2" stroke-miterlimit="10"/>
<path d="M313.22 349.72V354.2" stroke="#10161D" stroke-width="2" stroke-miterlimit="10"/>
<path d="M319.16 349.72V354.2" stroke="#10161D" stroke-width="2" stroke-miterlimit="10"/>
<path d="M325.09 349.72V354.2" stroke="#10161D" stroke-width="2" stroke-miterlimit="10"/>
<path d="M331.03 349.72V354.2" stroke="#10161D" stroke-width="2" stroke-miterlimit="10"/>
<path d="M301.34 356.86V361.34" stroke="#10161D" stroke-width="2" stroke-miterlimit="10"/>
<path d="M307.28 356.86V361.34" stroke="#10161D" stroke-width="2" stroke-miterlimit="10"/>
<path d="M313.22 356.86V361.34" stroke="#10161D" stroke-width="2" stroke-miterlimit="10"/>
<path d="M319.16 356.86V361.34" stroke="#10161D" stroke-width="2" stroke-miterlimit="10"/>
<path d="M325.09 356.86V361.34" stroke="#10161D" stroke-width="2" stroke-miterlimit="10"/>
<path d="M331.03 356.86V361.34" stroke="#10161D" stroke-width="2" stroke-miterlimit="10"/>
<path d="M301.34 364.01V368.49" stroke="#10161D" stroke-width="2" stroke-miterlimit="10"/>
<path d="M307.28 364.01V368.49" stroke="#10161D" stroke-width="2" stroke-miterlimit="10"/>
<path d="M313.22 364.01V368.49" stroke="#10161D" stroke-width="2" stroke-miterlimit="10"/>
<path d="M319.16 364.01V368.49" stroke="#10161D" stroke-width="2" stroke-miterlimit="10"/>
<path d="M325.09 364.01V368.49" stroke="#10161D" stroke-width="2" stroke-miterlimit="10"/>
<path d="M331.03 364.01V368.49" stroke="#10161D" stroke-width="2" stroke-miterlimit="10"/>
<path d="M301.34 371.15V375.63" stroke="#10161D" stroke-width="2" stroke-miterlimit="10"/>
<path d="M307.28 371.15V375.63" stroke="#10161D" stroke-width="2" stroke-miterlimit="10"/>
<path d="M313.22 371.15V375.63" stroke="#10161D" stroke-width="2" stroke-miterlimit="10"/>
<path d="M319.16 371.15V375.63" stroke="#10161D" stroke-width="2" stroke-miterlimit="10"/>
<path d="M325.09 371.15V375.63" stroke="#10161D" stroke-width="2" stroke-miterlimit="10"/>
<path d="M331.03 371.15V375.63" stroke="#10161D" stroke-width="2" stroke-miterlimit="10"/>
<path d="M301.34 378.3V382.78" stroke="#10161D" stroke-width="2" stroke-miterlimit="10"/>
<path d="M307.28 378.3V382.78" stroke="#10161D" stroke-width="2" stroke-miterlimit="10"/>
<path d="M313.22 378.3V382.78" stroke="#10161D" stroke-width="2" stroke-miterlimit="10"/>
<path d="M319.16 378.3V382.78" stroke="#10161D" stroke-width="2" stroke-miterlimit="10"/>
<path d="M325.09 378.3V382.78" stroke="#10161D" stroke-width="2" stroke-miterlimit="10"/>
<path d="M331.03 378.3V382.78" stroke="#10161D" stroke-width="2" stroke-miterlimit="10"/>
<path d="M295.66 394.28H300.83" stroke="#10161D" stroke-width="2" stroke-miterlimit="10"/>
<path d="M295.66 399.01H300.83" stroke="#10161D" stroke-width="2" stroke-miterlimit="10"/>
<path d="M295.66 403.73H300.83" stroke="#10161D" stroke-width="2" stroke-miterlimit="10"/>
<path d="M295.66 408.45H300.83" stroke="#10161D" stroke-width="2" stroke-miterlimit="10"/>
<path d="M295.66 413.18H300.83" stroke="#10161D" stroke-width="2" stroke-miterlimit="10"/>
<path d="M331.18 394.28H336.35" stroke="#10161D" stroke-width="2" stroke-miterlimit="10"/>
<path d="M331.18 399.01H336.35" stroke="#10161D" stroke-width="2" stroke-miterlimit="10"/>
<path d="M331.18 403.73H336.35" stroke="#10161D" stroke-width="2" stroke-miterlimit="10"/>
<path d="M331.18 408.45H336.35" stroke="#10161D" stroke-width="2" stroke-miterlimit="10"/>
<path d="M331.18 413.18H336.35" stroke="#10161D" stroke-width="2" stroke-miterlimit="10"/>
<path d="M309.41 394.28H314.58" stroke="#10161D" stroke-width="2" stroke-miterlimit="10"/>
<path d="M309.41 399.01H314.58" stroke="#10161D" stroke-width="2" stroke-miterlimit="10"/>
<path d="M309.41 403.73H314.58" stroke="#10161D" stroke-width="2" stroke-miterlimit="10"/>
<path d="M309.41 408.45H314.58" stroke="#10161D" stroke-width="2" stroke-miterlimit="10"/>
<path d="M309.41 413.18H314.58" stroke="#10161D" stroke-width="2" stroke-miterlimit="10"/>
<path d="M318.1 394.28H323.27" stroke="#10161D" stroke-width="2" stroke-miterlimit="10"/>
<path d="M318.1 399.01H323.27" stroke="#10161D" stroke-width="2" stroke-miterlimit="10"/>
<path d="M318.1 403.73H323.27" stroke="#10161D" stroke-width="2" stroke-miterlimit="10"/>
<path d="M318.1 408.45H323.27" stroke="#10161D" stroke-width="2" stroke-miterlimit="10"/>
<path d="M318.1 413.18H323.27" stroke="#10161D" stroke-width="2" stroke-miterlimit="10"/>
<path d="M295.66 425.4H300.83" stroke="#10161D" stroke-width="2" stroke-miterlimit="10"/>
<path d="M295.66 430.12H300.83" stroke="#10161D" stroke-width="2" stroke-miterlimit="10"/>
<path d="M295.66 434.84H300.83" stroke="#10161D" stroke-width="2" stroke-miterlimit="10"/>
<path d="M295.66 439.57H300.83" stroke="#10161D" stroke-width="2" stroke-miterlimit="10"/>
<path d="M295.66 444.29H300.83" stroke="#10161D" stroke-width="2" stroke-miterlimit="10"/>
<path d="M331.18 425.4H336.35" stroke="#10161D" stroke-width="2" stroke-miterlimit="10"/>
<path d="M331.18 430.12H336.35" stroke="#10161D" stroke-width="2" stroke-miterlimit="10"/>
<path d="M331.18 434.84H336.35" stroke="#10161D" stroke-width="2" stroke-miterlimit="10"/>
<path d="M331.18 439.57H336.35" stroke="#10161D" stroke-width="2" stroke-miterlimit="10"/>
<path d="M331.18 444.29H336.35" stroke="#10161D" stroke-width="2" stroke-miterlimit="10"/>
<path d="M309.41 425.4H314.58" stroke="#10161D" stroke-width="2" stroke-miterlimit="10"/>
<path d="M309.41 430.12H314.58" stroke="#10161D" stroke-width="2" stroke-miterlimit="10"/>
<path d="M309.41 434.84H314.58" stroke="#10161D" stroke-width="2" stroke-miterlimit="10"/>
<path d="M309.41 439.57H314.58" stroke="#10161D" stroke-width="2" stroke-miterlimit="10"/>
<path d="M309.41 444.29H314.58" stroke="#10161D" stroke-width="2" stroke-miterlimit="10"/>
<path d="M318.1 425.4H323.27" stroke="#10161D" stroke-width="2" stroke-miterlimit="10"/>
<path d="M318.1 430.12H323.27" stroke="#10161D" stroke-width="2" stroke-miterlimit="10"/>
<path d="M318.1 434.84H323.27" stroke="#10161D" stroke-width="2" stroke-miterlimit="10"/>
<path d="M318.1 439.57H323.27" stroke="#10161D" stroke-width="2" stroke-miterlimit="10"/>
<path d="M318.1 444.29H323.27" stroke="#10161D" stroke-width="2" stroke-miterlimit="10"/>
<path d="M295.66 456.51H300.83" stroke="#10161D" stroke-width="2" stroke-miterlimit="10"/>
<path d="M295.66 461.23H300.83" stroke="#10161D" stroke-width="2" stroke-miterlimit="10"/>
<path d="M295.66 465.96H300.83" stroke="#10161D" stroke-width="2" stroke-miterlimit="10"/>
<path d="M295.66 470.68H300.83" stroke="#10161D" stroke-width="2" stroke-miterlimit="10"/>
<path d="M295.66 475.4H300.83" stroke="#10161D" stroke-width="2" stroke-miterlimit="10"/>
<path d="M331.18 456.51H336.35" stroke="#10161D" stroke-width="2" stroke-miterlimit="10"/>
<path d="M331.18 461.23H336.35" stroke="#10161D" stroke-width="2" stroke-miterlimit="10"/>
<path d="M331.18 465.96H336.35" stroke="#10161D" stroke-width="2" stroke-miterlimit="10"/>
<path d="M331.18 470.68H336.35" stroke="#10161D" stroke-width="2" stroke-miterlimit="10"/>
<path d="M331.18 475.4H336.35" stroke="#10161D" stroke-width="2" stroke-miterlimit="10"/>
<path d="M309.41 456.51H314.58" stroke="#10161D" stroke-width="2" stroke-miterlimit="10"/>
<path d="M309.41 461.23H314.58" stroke="#10161D" stroke-width="2" stroke-miterlimit="10"/>
<path d="M309.41 465.96H314.58" stroke="#10161D" stroke-width="2" stroke-miterlimit="10"/>
<path d="M309.41 470.68H314.58" stroke="#10161D" stroke-width="2" stroke-miterlimit="10"/>
<path d="M309.41 475.4H314.58" stroke="#10161D" stroke-width="2" stroke-miterlimit="10"/>
<path d="M318.1 456.51H323.27" stroke="#10161D" stroke-width="2" stroke-miterlimit="10"/>
<path d="M318.1 461.23H323.27" stroke="#10161D" stroke-width="2" stroke-miterlimit="10"/>
<path d="M318.1 465.96H323.27" stroke="#10161D" stroke-width="2" stroke-miterlimit="10"/>
<path d="M318.1 470.68H323.27" stroke="#10161D" stroke-width="2" stroke-miterlimit="10"/>
<path d="M318.1 475.4H323.27" stroke="#10161D" stroke-width="2" stroke-miterlimit="10"/>
<path d="M291.78 387.75H287.91V494.76H291.78V387.75Z" stroke="#10161D" stroke-miterlimit="10"/>
<path d="M326.92 387.75H305.07V494.76H326.92V387.75Z" stroke="#10161D" stroke-miterlimit="10"/>
<path d="M344.09 387.75H340.22V494.76H344.09V387.75Z" stroke="#10161D" stroke-miterlimit="10"/>
<path d="M300.83 480.87H295.66V494.75H300.83V480.87Z" stroke="#10161D" stroke-width="2" stroke-miterlimit="10"/>
<path d="M314.58 480.87H309.41V494.75H314.58V480.87Z" stroke="#10161D" stroke-width="2" stroke-miterlimit="10"/>
<path d="M323.27 480.87H318.1V494.75H323.27V480.87Z" stroke="#10161D" stroke-width="2" stroke-miterlimit="10"/>
<path d="M336.35 480.87H331.18V494.75H336.35V480.87Z" stroke="#10161D" stroke-width="2" stroke-miterlimit="10"/>
<path d="M317.53 276.91H314.47V286.51H317.53V276.91Z" stroke="#10161D" stroke-miterlimit="10"/>
<path d="M298.24 480.87V494.65" stroke="#10161D" stroke-miterlimit="10"/>
<path d="M312 480.87V494.65" stroke="#10161D" stroke-miterlimit="10"/>
<path d="M320.69 480.87V494.65" stroke="#10161D" stroke-miterlimit="10"/>
<path d="M333.76 480.87V494.65" stroke="#10161D" stroke-miterlimit="10"/>
<path d="M293.88 419.24H302.82" stroke="#10161D" stroke-miterlimit="10"/>
<path d="M329.29 419.24H338.23" stroke="#10161D" stroke-miterlimit="10"/>
<path d="M307.27 419.24H324.73" stroke="#10161D" stroke-miterlimit="10"/>
<path d="M293.88 450.62H302.82" stroke="#10161D" stroke-miterlimit="10"/>
<path d="M329.29 450.62H338.23" stroke="#10161D" stroke-miterlimit="10"/>
<path d="M307.27 450.62H324.73" stroke="#10161D" stroke-miterlimit="10"/>
<path d="M192.99 272.4C192.16 272.4 191.49 271.73 191.49 270.9V269C191.49 268.17 192.16 267.5 192.99 267.5H194.81C195.64 267.5 196.31 268.17 196.31 269V270.9C196.31 271.73 195.64 272.4 194.81 272.4H192.99Z" fill="white"/>
<path d="M194.81 269V270.9H192.99V269H194.81ZM194.81 266H192.99C191.34 266 189.99 267.34 189.99 269V270.9C189.99 272.56 191.34 273.9 192.99 273.9H194.81C196.47 273.9 197.81 272.56 197.81 270.9V269C197.81 267.34 196.47 266 194.81 266Z" fill="white"/>
<path d="M171.91 498.68C169.76 498.68 168 496.92 168 494.77V350.23C168 348.14 169.66 346.42 171.72 346.32V336.38C171.72 334.62 172.89 333.13 174.49 332.64V314.48C174.49 312.82 175.84 311.48 177.49 311.48H178.11C178.37 310.87 178.69 310.28 179.07 309.71V308.68C179.07 306.88 179.61 305.11 180.65 303.51V302.26C180.65 300.45 181.23 298.7 182.34 297.16V296.96C182.34 295.2 182.96 293.49 184.12 292.03C184.15 290.18 184.95 288.43 186.34 287.05C186.52 286.12 186.93 285.24 187.54 284.48V282.8C187.54 281.02 188.48 279.4 189.99 278.37V272.51C189.99 270.85 191.34 269.51 192.99 269.51H194.81C196.47 269.51 197.81 270.85 197.81 272.51V278.37C199.32 279.4 200.26 281.02 200.26 282.8V284.48C200.87 285.24 201.28 286.12 201.47 287.05C202.86 288.42 203.65 290.18 203.69 292.03C204.84 293.49 205.47 295.2 205.47 296.96V297.15C206.58 298.7 207.16 300.44 207.16 302.26V303.51C208.19 305.11 208.74 306.88 208.74 308.68V309.68C209.12 310.26 209.44 310.86 209.71 311.48H210.58C212.24 311.48 213.58 312.82 213.58 314.48V332.56C215.34 332.96 216.65 334.52 216.65 336.38V346.32C218.72 346.42 220.37 348.13 220.37 350.23V494.77C220.37 496.92 218.61 498.68 216.46 498.68H171.91Z" fill="white"/>
<path d="M194.81 272.51V280.3C196.24 280.61 197.26 281.59 197.26 282.8V285.7C198.08 286.33 198.58 287.19 198.58 288.16V288.54C199.88 289.44 200.69 290.72 200.69 292.17V293.19C201.8 294.24 202.47 295.54 202.47 296.96V298.21C203.53 299.38 204.16 300.77 204.16 302.26V304.48C205.16 305.72 205.73 307.15 205.73 308.68V310.66C206.91 312.12 207.54 313.78 207.54 315.49V335.47H208.76V314.48H210.58V335.47H212.71H212.74C213.24 335.47 213.65 335.88 213.65 336.38V349.32H216.46C216.96 349.32 217.37 349.73 217.37 350.23V494.77C217.37 495.27 216.96 495.68 216.46 495.68H171.91C171.41 495.68 171 495.27 171 494.77V350.23C171 349.73 171.41 349.32 171.91 349.32H174.72V336.38C174.72 335.88 175.13 335.47 175.63 335.47H177.5V314.48H179.31V335.47H180.27V315.49C180.27 313.74 180.93 312.1 182.07 310.69V308.68C182.07 307.15 182.65 305.72 183.65 304.48V302.26C183.65 300.76 184.27 299.38 185.34 298.21V296.95C185.34 295.54 186.01 294.23 187.12 293.19V292.17C187.12 290.72 187.93 289.44 189.23 288.54V288.16C189.23 287.19 189.73 286.33 190.54 285.7V282.8C190.54 281.59 191.57 280.6 192.99 280.3V272.51H194.81ZM194.81 266.51H192.99C189.68 266.51 186.99 269.2 186.99 272.51V276.97C185.46 278.51 184.54 280.57 184.54 282.8V283.54C184.15 284.18 183.84 284.85 183.63 285.56C182.28 287.12 181.43 288.97 181.19 290.96C180.12 292.56 179.5 294.35 179.37 296.21C178.24 298.07 177.65 300.12 177.65 302.26V302.68C176.61 304.54 176.07 306.57 176.07 308.65C173.44 309.29 171.49 311.66 171.49 314.48V330.85C169.81 332.11 168.72 334.12 168.72 336.38V344.1C166.51 345.25 165 347.57 165 350.23V494.77C165 498.58 168.1 501.68 171.91 501.68H216.46C220.27 501.68 223.37 498.58 223.37 494.77V350.23C223.37 347.57 221.85 345.25 219.65 344.1V336.38C219.65 333.99 218.43 331.88 216.58 330.64V314.48C216.58 311.56 214.5 309.13 211.73 308.59C211.72 306.53 211.18 304.52 210.16 302.68V302.26C210.16 300.12 209.57 298.06 208.44 296.21C208.31 294.35 207.68 292.56 206.61 290.96C206.37 288.97 205.53 287.11 204.18 285.56C203.96 284.85 203.65 284.18 203.26 283.54V282.8C203.26 280.57 202.35 278.51 200.81 276.97V272.51C200.81 269.2 198.13 266.51 194.81 266.51Z" fill="white"/>
<path d="M177.49 314.06C176.67 314.06 175.99 313.39 175.99 312.56V309.63C175.99 308.8 176.67 308.13 177.49 308.13H179.31C180.14 308.13 180.81 308.8 180.81 309.63V312.56C180.81 313.39 180.14 314.06 179.31 314.06H177.49Z" fill="white"/>
<path d="M179.31 309.63V312.56H177.49V309.63H179.31ZM179.31 306.63H177.49C175.84 306.63 174.49 307.97 174.49 309.63V312.56C174.49 314.22 175.84 315.56 177.49 315.56H179.31C180.97 315.56 182.31 314.22 182.31 312.56V309.63C182.31 307.97 180.97 306.63 179.31 306.63Z" fill="white"/>
<path d="M208.76 314.06C207.93 314.06 207.26 313.39 207.26 312.56V309.63C207.26 308.8 207.93 308.13 208.76 308.13H210.58C211.41 308.13 212.08 308.8 212.08 309.63V312.56C212.08 313.39 211.41 314.06 210.58 314.06H208.76Z" fill="white"/>
<path d="M210.58 309.63V312.56H208.76V309.63H210.58ZM210.58 306.63H208.76C207.1 306.63 205.76 307.97 205.76 309.63V312.56C205.76 314.22 207.1 315.56 208.76 315.56H210.58C212.24 315.56 213.58 314.22 213.58 312.56V309.63C213.58 307.97 212.24 306.63 210.58 306.63Z" fill="white"/>
<path d="M204.83 310.98C202.6 308.41 198.54 306.7 193.9 306.7C186.87 306.7 181.17 310.63 181.17 315.49V336.38H206.63V315.49C206.63 313.84 205.97 312.3 204.83 310.98Z" stroke="black" stroke-width="2" stroke-miterlimit="10" stroke-linejoin="round"/>
<path d="M204.83 310.98V308.68C204.83 304.51 199.93 301.13 193.9 301.13C187.87 301.13 182.98 304.51 182.98 308.68V310.98" stroke="black" stroke-width="2" stroke-miterlimit="10" stroke-linejoin="round"/>
<path d="M203.25 304.77V302.26C203.25 298.69 199.06 295.8 193.9 295.8C188.74 295.8 184.56 298.69 184.56 302.26V304.77" stroke="black" stroke-width="2" stroke-miterlimit="10" stroke-linejoin="round"/>
<path d="M201.56 298.56V296.96C201.56 294.03 198.13 291.67 193.9 291.67C189.68 291.67 186.25 294.03 186.25 296.96V298.56" stroke="black" stroke-width="2" stroke-miterlimit="10" stroke-linejoin="round"/>
<path d="M199.78 293.4V292.17C199.78 289.92 197.15 288.11 193.9 288.11C190.66 288.11 188.03 289.92 188.03 292.17V293.4" stroke="black" stroke-width="2" stroke-miterlimit="10" stroke-linejoin="round"/>
<path d="M197.67 288.95V288.16C197.67 286.72 195.98 285.56 193.9 285.56C191.82 285.56 190.14 286.72 190.14 288.16V288.95" stroke="black" stroke-width="2" stroke-miterlimit="10" stroke-linejoin="round"/>
<path d="M196.35 286.05V282.8C196.35 281.86 195.26 281.11 193.9 281.11C192.55 281.11 191.45 281.87 191.45 282.8V286.19" stroke="black" stroke-width="2" stroke-miterlimit="10" stroke-linejoin="round"/>
<path d="M193.9 281.11V272.51" stroke="black" stroke-miterlimit="10" stroke-linejoin="round"/>
<path d="M193.9 270.9V269" stroke="black" stroke-miterlimit="10" stroke-linejoin="round"/>
<path d="M212.737 350.228V336.377H175.633V350.228H171.912V494.769H216.458V350.228H212.737Z" stroke="black" stroke-width="2" stroke-miterlimit="10" stroke-linejoin="round"/>
<path d="M181.17 336.38H175.63V350.23H181.17V336.38Z" stroke="black" stroke-width="2" stroke-miterlimit="10" stroke-linejoin="round"/>
<path d="M212.71 336.38H206.63V350.23H212.71V336.38Z" stroke="black" stroke-width="2" stroke-miterlimit="10" stroke-linejoin="round"/>
<path d="M175.63 355.7H181.17" stroke="black" stroke-width="2" stroke-miterlimit="10" stroke-linejoin="round"/>
<path d="M175.63 361.11H181.17" stroke="black" stroke-width="2" stroke-miterlimit="10" stroke-linejoin="round"/>
<path d="M175.63 366.52H181.17" stroke="black" stroke-width="2" stroke-miterlimit="10" stroke-linejoin="round"/>
<path d="M175.63 371.94H181.17" stroke="black" stroke-width="2" stroke-miterlimit="10" stroke-linejoin="round"/>
<path d="M175.63 377.35H181.17" stroke="black" stroke-width="2" stroke-miterlimit="10" stroke-linejoin="round"/>
<path d="M175.63 382.76H181.17" stroke="black" stroke-width="2" stroke-miterlimit="10" stroke-linejoin="round"/>
<path d="M175.63 388.18H181.17" stroke="black" stroke-width="2" stroke-miterlimit="10" stroke-linejoin="round"/>
<path d="M175.63 393.59H181.17" stroke="black" stroke-width="2" stroke-miterlimit="10" stroke-linejoin="round"/>
<path d="M175.63 399H181.17" stroke="black" stroke-width="2" stroke-miterlimit="10" stroke-linejoin="round"/>
<path d="M175.63 404.42H181.17" stroke="black" stroke-width="2" stroke-miterlimit="10" stroke-linejoin="round"/>
<path d="M175.63 409.83H181.17" stroke="black" stroke-width="2" stroke-miterlimit="10" stroke-linejoin="round"/>
<path d="M175.63 415.24H181.17" stroke="black" stroke-width="2" stroke-miterlimit="10" stroke-linejoin="round"/>
<path d="M175.63 420.66H181.17" stroke="black" stroke-width="2" stroke-miterlimit="10" stroke-linejoin="round"/>
<path d="M175.63 426.07H181.17" stroke="black" stroke-width="2" stroke-miterlimit="10" stroke-linejoin="round"/>
<path d="M175.63 431.48H181.17" stroke="black" stroke-width="2" stroke-miterlimit="10" stroke-linejoin="round"/>
<path d="M175.63 436.9H181.17" stroke="black" stroke-width="2" stroke-miterlimit="10" stroke-linejoin="round"/>
<path d="M175.63 442.31H181.17" stroke="black" stroke-width="2" stroke-miterlimit="10" stroke-linejoin="round"/>
<path d="M175.63 447.72H181.17" stroke="black" stroke-width="2" stroke-miterlimit="10" stroke-linejoin="round"/>
<path d="M175.63 453.14H181.17" stroke="black" stroke-width="2" stroke-miterlimit="10" stroke-linejoin="round"/>
<path d="M175.63 458.55H181.17" stroke="black" stroke-width="2" stroke-miterlimit="10" stroke-linejoin="round"/>
<path d="M175.63 463.96H181.17" stroke="black" stroke-width="2" stroke-miterlimit="10" stroke-linejoin="round"/>
<path d="M175.63 469.38H181.17" stroke="black" stroke-width="2" stroke-miterlimit="10" stroke-linejoin="round"/>
<path d="M175.63 474.79H181.17" stroke="black" stroke-width="2" stroke-miterlimit="10" stroke-linejoin="round"/>
<path d="M175.63 480.2H181.17" stroke="black" stroke-width="2" stroke-miterlimit="10" stroke-linejoin="round"/>
<path d="M175.63 485.62H181.17" stroke="black" stroke-width="2" stroke-miterlimit="10" stroke-linejoin="round"/>
<path d="M206.9 355.7H212.44" stroke="black" stroke-width="2" stroke-miterlimit="10" stroke-linejoin="round"/>
<path d="M206.9 361.11H212.44" stroke="black" stroke-width="2" stroke-miterlimit="10" stroke-linejoin="round"/>
<path d="M206.9 366.52H212.44" stroke="black" stroke-width="2" stroke-miterlimit="10" stroke-linejoin="round"/>
<path d="M206.9 371.94H212.44" stroke="black" stroke-width="2" stroke-miterlimit="10" stroke-linejoin="round"/>
<path d="M206.9 377.35H212.44" stroke="black" stroke-width="2" stroke-miterlimit="10" stroke-linejoin="round"/>
<path d="M206.9 382.76H212.44" stroke="black" stroke-width="2" stroke-miterlimit="10" stroke-linejoin="round"/>
<path d="M206.9 388.18H212.44" stroke="black" stroke-width="2" stroke-miterlimit="10" stroke-linejoin="round"/>
<path d="M206.9 393.59H212.44" stroke="black" stroke-width="2" stroke-miterlimit="10" stroke-linejoin="round"/>
<path d="M206.9 399H212.44" stroke="black" stroke-width="2" stroke-miterlimit="10" stroke-linejoin="round"/>
<path d="M206.9 404.42H212.44" stroke="black" stroke-width="2" stroke-miterlimit="10" stroke-linejoin="round"/>
<path d="M206.9 409.83H212.44" stroke="black" stroke-width="2" stroke-miterlimit="10" stroke-linejoin="round"/>
<path d="M206.9 415.24H212.44" stroke="black" stroke-width="2" stroke-miterlimit="10" stroke-linejoin="round"/>
<path d="M206.9 420.66H212.44" stroke="black" stroke-width="2" stroke-miterlimit="10" stroke-linejoin="round"/>
<path d="M206.9 426.07H212.44" stroke="black" stroke-width="2" stroke-miterlimit="10" stroke-linejoin="round"/>
<path d="M206.9 431.48H212.44" stroke="black" stroke-width="2" stroke-miterlimit="10" stroke-linejoin="round"/>
<path d="M206.9 436.9H212.44" stroke="black" stroke-width="2" stroke-miterlimit="10" stroke-linejoin="round"/>
<path d="M206.9 442.31H212.44" stroke="black" stroke-width="2" stroke-miterlimit="10" stroke-linejoin="round"/>
<path d="M206.9 447.72H212.44" stroke="black" stroke-width="2" stroke-miterlimit="10" stroke-linejoin="round"/>
<path d="M206.9 453.14H212.44" stroke="black" stroke-width="2" stroke-miterlimit="10" stroke-linejoin="round"/>
<path d="M206.9 458.55H212.44" stroke="black" stroke-width="2" stroke-miterlimit="10" stroke-linejoin="round"/>
<path d="M206.9 463.96H212.44" stroke="black" stroke-width="2" stroke-miterlimit="10" stroke-linejoin="round"/>
<path d="M206.9 469.38H212.44" stroke="black" stroke-width="2" stroke-miterlimit="10" stroke-linejoin="round"/>
<path d="M206.9 474.79H212.44" stroke="black" stroke-width="2" stroke-miterlimit="10" stroke-linejoin="round"/>
<path d="M206.9 480.2H212.44" stroke="black" stroke-width="2" stroke-miterlimit="10" stroke-linejoin="round"/>
<path d="M206.9 485.62H212.44" stroke="black" stroke-width="2" stroke-miterlimit="10" stroke-linejoin="round"/>
<path d="M191.13 355.7H196.67" stroke="black" stroke-width="2" stroke-miterlimit="10" stroke-linejoin="round"/>
<path d="M191.13 361.11H196.67" stroke="black" stroke-width="2" stroke-miterlimit="10" stroke-linejoin="round"/>
<path d="M191.13 366.52H196.67" stroke="black" stroke-width="2" stroke-miterlimit="10" stroke-linejoin="round"/>
<path d="M191.13 371.94H196.67" stroke="black" stroke-width="2" stroke-miterlimit="10" stroke-linejoin="round"/>
<path d="M191.13 344.87H196.67" stroke="black" stroke-width="2" stroke-miterlimit="10" stroke-linejoin="round"/>
<path d="M191.13 350.28H196.67" stroke="black" stroke-width="2" stroke-miterlimit="10" stroke-linejoin="round"/>
<path d="M191.13 377.35H196.67" stroke="black" stroke-width="2" stroke-miterlimit="10" stroke-linejoin="round"/>
<path d="M191.13 382.76H196.67" stroke="black" stroke-width="2" stroke-miterlimit="10" stroke-linejoin="round"/>
<path d="M191.13 388.18H196.67" stroke="black" stroke-width="2" stroke-miterlimit="10" stroke-linejoin="round"/>
<path d="M191.13 393.59H196.67" stroke="black" stroke-width="2" stroke-miterlimit="10" stroke-linejoin="round"/>
<path d="M191.13 399H196.67" stroke="black" stroke-width="2" stroke-miterlimit="10" stroke-linejoin="round"/>
<path d="M191.13 404.42H196.67" stroke="black" stroke-width="2" stroke-miterlimit="10" stroke-linejoin="round"/>
<path d="M191.13 409.83H196.67" stroke="black" stroke-width="2" stroke-miterlimit="10" stroke-linejoin="round"/>
<path d="M191.13 415.24H196.67" stroke="black" stroke-width="2" stroke-miterlimit="10" stroke-linejoin="round"/>
<path d="M191.13 420.66H196.67" stroke="black" stroke-width="2" stroke-miterlimit="10" stroke-linejoin="round"/>
<path d="M191.13 426.07H196.67" stroke="black" stroke-width="2" stroke-miterlimit="10" stroke-linejoin="round"/>
<path d="M191.13 431.48H196.67" stroke="black" stroke-width="2" stroke-miterlimit="10" stroke-linejoin="round"/>
<path d="M191.13 436.9H196.67" stroke="black" stroke-width="2" stroke-miterlimit="10" stroke-linejoin="round"/>
<path d="M191.13 442.31H196.67" stroke="black" stroke-width="2" stroke-miterlimit="10" stroke-linejoin="round"/>
<path d="M191.13 447.72H196.67" stroke="black" stroke-width="2" stroke-miterlimit="10" stroke-linejoin="round"/>
<path d="M191.13 453.14H196.67" stroke="black" stroke-width="2" stroke-miterlimit="10" stroke-linejoin="round"/>
<path d="M191.13 458.55H196.67" stroke="black" stroke-width="2" stroke-miterlimit="10" stroke-linejoin="round"/>
<path d="M191.13 463.96H196.67" stroke="black" stroke-width="2" stroke-miterlimit="10" stroke-linejoin="round"/>
<path d="M191.13 469.38H196.67" stroke="black" stroke-width="2" stroke-miterlimit="10" stroke-linejoin="round"/>
<path d="M191.13 474.79H196.67" stroke="black" stroke-width="2" stroke-miterlimit="10" stroke-linejoin="round"/>
<path d="M191.13 480.2H196.67" stroke="black" stroke-width="2" stroke-miterlimit="10" stroke-linejoin="round"/>
<path d="M191.13 485.62H196.67" stroke="black" stroke-width="2" stroke-miterlimit="10" stroke-linejoin="round"/>
<path d="M184.91 355.7H187.59" stroke="black" stroke-miterlimit="10" stroke-linejoin="round"/>
<path d="M184.91 361.11H187.59" stroke="black" stroke-miterlimit="10" stroke-linejoin="round"/>
<path d="M184.91 366.52H187.59" stroke="black" stroke-miterlimit="10" stroke-linejoin="round"/>
<path d="M184.91 371.94H187.59" stroke="black" stroke-miterlimit="10" stroke-linejoin="round"/>
<path d="M184.91 344.87H187.59" stroke="black" stroke-miterlimit="10" stroke-linejoin="round"/>
<path d="M184.91 350.28H187.59" stroke="black" stroke-miterlimit="10" stroke-linejoin="round"/>
<path d="M184.91 377.35H187.59" stroke="black" stroke-miterlimit="10" stroke-linejoin="round"/>
<path d="M184.91 382.76H187.59" stroke="black" stroke-miterlimit="10" stroke-linejoin="round"/>
<path d="M184.91 388.18H187.59" stroke="black" stroke-miterlimit="10" stroke-linejoin="round"/>
<path d="M184.91 393.59H187.59" stroke="black" stroke-miterlimit="10" stroke-linejoin="round"/>
<path d="M184.91 399H187.59" stroke="black" stroke-miterlimit="10" stroke-linejoin="round"/>
<path d="M184.91 404.42H187.59" stroke="black" stroke-miterlimit="10" stroke-linejoin="round"/>
<path d="M184.91 409.83H187.59" stroke="black" stroke-miterlimit="10" stroke-linejoin="round"/>
<path d="M184.91 415.24H187.59" stroke="black" stroke-miterlimit="10" stroke-linejoin="round"/>
<path d="M184.91 420.66H187.59" stroke="black" stroke-miterlimit="10" stroke-linejoin="round"/>
<path d="M184.91 426.07H187.59" stroke="black" stroke-miterlimit="10" stroke-linejoin="round"/>
<path d="M184.91 431.48H187.59" stroke="black" stroke-miterlimit="10" stroke-linejoin="round"/>
<path d="M184.91 436.9H187.59" stroke="black" stroke-miterlimit="10" stroke-linejoin="round"/>
<path d="M184.91 442.31H187.59" stroke="black" stroke-miterlimit="10" stroke-linejoin="round"/>
<path d="M184.91 447.72H187.59" stroke="black" stroke-miterlimit="10" stroke-linejoin="round"/>
<path d="M184.91 453.14H187.59" stroke="black" stroke-miterlimit="10" stroke-linejoin="round"/>
<path d="M184.91 458.55H187.59" stroke="black" stroke-miterlimit="10" stroke-linejoin="round"/>
<path d="M184.91 463.96H187.59" stroke="black" stroke-miterlimit="10" stroke-linejoin="round"/>
<path d="M184.91 469.38H187.59" stroke="black" stroke-miterlimit="10" stroke-linejoin="round"/>
<path d="M184.91 474.79H187.59" stroke="black" stroke-miterlimit="10" stroke-linejoin="round"/>
<path d="M184.91 480.2H187.59" stroke="black" stroke-miterlimit="10" stroke-linejoin="round"/>
<path d="M184.91 485.62H187.59" stroke="black" stroke-miterlimit="10" stroke-linejoin="round"/>
<path d="M200.22 355.7H202.9" stroke="black" stroke-miterlimit="10" stroke-linejoin="round"/>
<path d="M200.22 361.11H202.9" stroke="black" stroke-miterlimit="10" stroke-linejoin="round"/>
<path d="M200.22 366.52H202.9" stroke="black" stroke-miterlimit="10" stroke-linejoin="round"/>
<path d="M200.22 371.94H202.9" stroke="black" stroke-miterlimit="10" stroke-linejoin="round"/>
<path d="M200.22 344.87H202.9" stroke="black" stroke-miterlimit="10" stroke-linejoin="round"/>
<path d="M200.22 350.28H202.9" stroke="black" stroke-miterlimit="10" stroke-linejoin="round"/>
<path d="M200.22 377.35H202.9" stroke="black" stroke-miterlimit="10" stroke-linejoin="round"/>
<path d="M200.22 382.76H202.9" stroke="black" stroke-miterlimit="10" stroke-linejoin="round"/>
<path d="M200.22 388.18H202.9" stroke="black" stroke-miterlimit="10" stroke-linejoin="round"/>
<path d="M200.22 393.59H202.9" stroke="black" stroke-miterlimit="10" stroke-linejoin="round"/>
<path d="M200.22 399H202.9" stroke="black" stroke-miterlimit="10" stroke-linejoin="round"/>
<path d="M200.22 404.42H202.9" stroke="black" stroke-miterlimit="10" stroke-linejoin="round"/>
<path d="M200.22 409.83H202.9" stroke="black" stroke-miterlimit="10" stroke-linejoin="round"/>
<path d="M200.22 415.24H202.9" stroke="black" stroke-miterlimit="10" stroke-linejoin="round"/>
<path d="M200.22 420.66H202.9" stroke="black" stroke-miterlimit="10" stroke-linejoin="round"/>
<path d="M200.22 426.07H202.9" stroke="black" stroke-miterlimit="10" stroke-linejoin="round"/>
<path d="M200.22 431.48H202.9" stroke="black" stroke-miterlimit="10" stroke-linejoin="round"/>
<path d="M200.22 436.9H202.9" stroke="black" stroke-miterlimit="10" stroke-linejoin="round"/>
<path d="M200.22 442.31H202.9" stroke="black" stroke-miterlimit="10" stroke-linejoin="round"/>
<path d="M200.22 447.72H202.9" stroke="black" stroke-miterlimit="10" stroke-linejoin="round"/>
<path d="M200.22 453.14H202.9" stroke="black" stroke-miterlimit="10" stroke-linejoin="round"/>
<path d="M200.22 458.55H202.9" stroke="black" stroke-miterlimit="10" stroke-linejoin="round"/>
<path d="M200.22 463.96H202.9" stroke="black" stroke-miterlimit="10" stroke-linejoin="round"/>
<path d="M200.22 469.38H202.9" stroke="black" stroke-miterlimit="10" stroke-linejoin="round"/>
<path d="M200.22 474.79H202.9" stroke="black" stroke-miterlimit="10" stroke-linejoin="round"/>
<path d="M200.22 480.2H202.9" stroke="black" stroke-miterlimit="10" stroke-linejoin="round"/>
<path d="M200.22 485.62H202.9" stroke="black" stroke-miterlimit="10" stroke-linejoin="round"/>
<path d="M178.4 336.38V314.48" stroke="black" stroke-miterlimit="10" stroke-linejoin="round"/>
<path d="M178.4 312.56V309.63" stroke="black" stroke-miterlimit="10" stroke-linejoin="round"/>
<path d="M209.67 336.38V314.48" stroke="black" stroke-miterlimit="10" stroke-linejoin="round"/>
<path d="M209.67 312.56V309.63" stroke="black" stroke-miterlimit="10" stroke-linejoin="round"/>
<path d="M186.25 332.52H201.56" stroke="black" stroke-miterlimit="10" stroke-linejoin="round"/>
<path d="M186.25 328.69H201.56" stroke="black" stroke-width="2" stroke-miterlimit="10" stroke-linejoin="round"/>
<path d="M186.25 324.85H201.56" stroke="black" stroke-miterlimit="10" stroke-linejoin="round"/>
<path d="M186.25 321.02H201.56" stroke="black" stroke-width="2" stroke-miterlimit="10" stroke-linejoin="round"/>
<path d="M186.25 317.18H201.56" stroke="black" stroke-miterlimit="10" stroke-linejoin="round"/>
<path d="M188.71 313.35H199.09" stroke="black" stroke-width="2" stroke-miterlimit="10" stroke-linejoin="round"/>
<path d="M209.67 336.38V350.23" stroke="black" stroke-miterlimit="10" stroke-linejoin="round"/>
<path d="M178.4 336.38V350.28" stroke="black" stroke-miterlimit="10" stroke-linejoin="round"/>
<path d="M241 500.06C239.34 500.06 238 498.72 238 497.06V354C238 352.82 238.7 351.74 239.79 351.26C240.18 351.09 240.59 351 241 351C241.73 351 242.46 351.27 243.02 351.79L276.77 382.66C277.39 383.23 277.74 384.03 277.74 384.88V497.06C277.74 498.72 276.4 500.06 274.74 500.06H241Z" fill="white"/>
<path d="M241 354L274.75 384.88V497.06H241V354ZM240.99 348C240.18 348 239.35 348.17 238.58 348.51C236.4 349.47 235 351.62 235 354V497.06C235 500.37 237.68 503.06 241 503.06H274.74C278.06 503.06 280.74 500.37 280.74 497.06V384.87C280.74 383.19 280.04 381.59 278.79 380.45L245.05 349.58C243.92 348.55 242.46 348 240.99 348Z" fill="white"/>
<path d="M273.751 385.314L241.989 356.259V496.064H273.751V385.314Z" stroke="#10161D" stroke-width="2" stroke-miterlimit="10"/>
<path d="M245.93 484.24H251.59" stroke="#10161D" stroke-width="2" stroke-miterlimit="10"/>
<path d="M255.04 484.24H260.7" stroke="#10161D" stroke-width="2" stroke-miterlimit="10"/>
<path d="M264.15 484.24H269.81" stroke="#10161D" stroke-width="2" stroke-miterlimit="10"/>
<path d="M245.93 477.02H251.59" stroke="#10161D" stroke-width="2" stroke-miterlimit="10"/>
<path d="M255.04 477.02H260.7" stroke="#10161D" stroke-width="2" stroke-miterlimit="10"/>
<path d="M264.15 477.02H269.81" stroke="#10161D" stroke-width="2" stroke-miterlimit="10"/>
<path d="M245.93 469.81H251.59" stroke="#10161D" stroke-width="2" stroke-miterlimit="10"/>
<path d="M255.04 469.81H260.7" stroke="#10161D" stroke-width="2" stroke-miterlimit="10"/>
<path d="M264.15 469.81H269.81" stroke="#10161D" stroke-width="2" stroke-miterlimit="10"/>
<path d="M245.93 462.6H251.59" stroke="#10161D" stroke-width="2" stroke-miterlimit="10"/>
<path d="M255.04 462.6H260.7" stroke="#10161D" stroke-width="2" stroke-miterlimit="10"/>
<path d="M264.15 462.6H269.81" stroke="#10161D" stroke-width="2" stroke-miterlimit="10"/>
<path d="M245.93 455.39H251.59" stroke="#10161D" stroke-width="2" stroke-miterlimit="10"/>
<path d="M255.04 455.39H260.7" stroke="#10161D" stroke-width="2" stroke-miterlimit="10"/>
<path d="M264.15 455.39H269.81" stroke="#10161D" stroke-width="2" stroke-miterlimit="10"/>
<path d="M245.93 448.18H251.59" stroke="#10161D" stroke-width="2" stroke-miterlimit="10"/>
<path d="M255.04 448.18H260.7" stroke="#10161D" stroke-width="2" stroke-miterlimit="10"/>
<path d="M264.15 448.18H269.81" stroke="#10161D" stroke-width="2" stroke-miterlimit="10"/>
<path d="M245.93 440.97H251.59" stroke="#10161D" stroke-width="2" stroke-miterlimit="10"/>
<path d="M255.04 440.97H260.7" stroke="#10161D" stroke-width="2" stroke-miterlimit="10"/>
<path d="M264.15 440.97H269.81" stroke="#10161D" stroke-width="2" stroke-miterlimit="10"/>
<path d="M245.93 433.76H251.59" stroke="#10161D" stroke-width="2" stroke-miterlimit="10"/>
<path d="M255.04 433.76H260.7" stroke="#10161D" stroke-width="2" stroke-miterlimit="10"/>
<path d="M264.15 433.76H269.81" stroke="#10161D" stroke-width="2" stroke-miterlimit="10"/>
<path d="M245.93 426.55H251.59" stroke="#10161D" stroke-width="2" stroke-miterlimit="10"/>
<path d="M255.04 426.55H260.7" stroke="#10161D" stroke-width="2" stroke-miterlimit="10"/>
<path d="M264.15 426.55H269.81" stroke="#10161D" stroke-width="2" stroke-miterlimit="10"/>
<path d="M245.93 419.34H251.59" stroke="#10161D" stroke-width="2" stroke-miterlimit="10"/>
<path d="M255.04 419.34H260.7" stroke="#10161D" stroke-width="2" stroke-miterlimit="10"/>
<path d="M264.15 419.34H269.81" stroke="#10161D" stroke-width="2" stroke-miterlimit="10"/>
<path d="M245.93 412.13H251.59" stroke="#10161D" stroke-width="2" stroke-miterlimit="10"/>
<path d="M255.04 412.13H260.7" stroke="#10161D" stroke-width="2" stroke-miterlimit="10"/>
<path d="M264.15 412.13H269.81" stroke="#10161D" stroke-width="2" stroke-miterlimit="10"/>
<path d="M245.93 404.91H251.59" stroke="#10161D" stroke-width="2" stroke-miterlimit="10"/>
<path d="M255.04 404.91H260.7" stroke="#10161D" stroke-width="2" stroke-miterlimit="10"/>
<path d="M264.15 404.91H269.81" stroke="#10161D" stroke-width="2" stroke-miterlimit="10"/>
<path d="M245.93 397.7H251.59" stroke="#10161D" stroke-width="2" stroke-miterlimit="10"/>
<path d="M255.04 397.7H260.7" stroke="#10161D" stroke-width="2" stroke-miterlimit="10"/>
<path d="M264.15 397.7H269.81" stroke="#10161D" stroke-width="2" stroke-miterlimit="10"/>
<path d="M245.93 390.49H251.59" stroke="#10161D" stroke-width="2" stroke-miterlimit="10"/>
<path d="M255.04 390.49H260.7" stroke="#10161D" stroke-width="2" stroke-miterlimit="10"/>
<path d="M245.93 383.28H251.59" stroke="#10161D" stroke-width="2" stroke-miterlimit="10"/>
<path d="M241.99 480.74H273.75" stroke="#10161D" stroke-miterlimit="10"/>
<path d="M241.99 487.33H273.75" stroke="#10161D" stroke-miterlimit="10"/>
<path d="M241.99 493.23H273.75" stroke="#10161D" stroke-miterlimit="10"/>
<path d="M241.99 473.44H273.75" stroke="#10161D" stroke-miterlimit="10"/>
<path d="M241.99 466.11H273.75" stroke="#10161D" stroke-miterlimit="10"/>
<path d="M241.99 458.77H273.75" stroke="#10161D" stroke-miterlimit="10"/>
<path d="M241.99 451.73H273.75" stroke="#10161D" stroke-miterlimit="10"/>
<path d="M241.99 444.45H273.75" stroke="#10161D" stroke-miterlimit="10"/>
<path d="M241.99 437.4H273.75" stroke="#10161D" stroke-miterlimit="10"/>
<path d="M241.99 429.84H273.75" stroke="#10161D" stroke-miterlimit="10"/>
<path d="M241.99 423.12H273.75" stroke="#10161D" stroke-miterlimit="10"/>
<path d="M241.99 415.8H273.75" stroke="#10161D" stroke-miterlimit="10"/>
<path d="M241.99 408.46H273.75" stroke="#10161D" stroke-miterlimit="10"/>
<path d="M241.99 401.47H273.75" stroke="#10161D" stroke-miterlimit="10"/>
<path d="M241.99 394.02H273.75" stroke="#10161D" stroke-miterlimit="10"/>
<path d="M241.99 386.75H273.75" stroke="#10161D" stroke-miterlimit="10"/>
<path d="M73.782 502.869C70.4273 502.869 67.6811 500.139 67.6811 496.768V123.424C67.6811 120.974 69.1478 118.758 71.4103 117.806L76.6375 115.591V101.423C76.6375 98.0523 79.3837 95.3217 82.7384 95.3217H101.322L102.477 70.8555C102.602 67.9064 104.817 65.5191 107.673 65.1134V15.7908C107.673 12.436 110.403 9.68979 113.774 9.68979C117.129 9.68979 119.875 12.436 119.875 15.7908V65.1134C122.715 65.5347 124.93 67.9064 125.071 70.8555L126.21 95.3217H145.23C148.601 95.3217 151.331 98.0523 151.331 101.423V115.575L156.605 117.806C158.852 118.758 160.319 120.974 160.319 123.424V496.768C160.319 500.139 157.588 502.869 154.218 502.869H73.782Z" fill="white"/>
<path d="M113.758 14.3708C114.554 14.3708 115.178 15.0106 115.178 15.7907V69.732H118.97C119.734 69.732 120.358 70.3249 120.39 71.0739L121.747 100.003H145.23C146.011 100.003 146.65 100.643 146.65 101.423V118.68L154.764 122.113C155.295 122.331 155.638 122.846 155.638 123.424V488.171V496.768C155.638 497.564 154.998 498.188 154.218 498.188H73.782C73.0018 498.188 72.3621 497.564 72.3621 496.768V488.171V123.424C72.3621 122.846 72.7054 122.331 73.2359 122.113L81.3185 118.696V101.423C81.3185 100.643 81.9582 100.003 82.7384 100.003H105.785L107.142 71.0739C107.173 70.3249 107.798 69.732 108.562 69.732H112.338V15.7907C112.338 15.0106 112.978 14.3708 113.758 14.3708ZM113.758 5.00873C107.813 5.00873 102.976 9.84581 102.976 15.7907V61.9147C99.9959 63.7091 97.9674 66.9078 97.7958 70.637L96.8596 90.6407H82.7384C76.7935 90.6407 71.9564 95.4778 71.9564 101.423V112.486L69.5847 113.5C65.5902 115.185 63 119.086 63 123.424V488.171V496.768C63 502.713 67.8371 507.55 73.782 507.55H154.218C160.163 507.55 165 502.713 165 496.768V488.171V123.424C165 119.086 162.41 115.185 158.415 113.5L156.012 112.47V101.423C156.012 95.4778 151.175 90.6407 145.23 90.6407H130.672L129.736 70.637C129.564 66.9078 127.52 63.7091 124.54 61.9147V15.7907C124.54 9.84581 119.703 5.00873 113.758 5.00873Z" fill="white"/>
<path d="M113.758 13.6374C111.698 13.6374 109.998 11.9523 109.998 9.877V6.10096C109.998 4.02569 111.698 2.34052 113.758 2.34052C115.833 2.34052 117.519 4.02569 117.519 6.10096V9.877C117.519 11.9523 115.833 13.6374 113.758 13.6374Z" fill="white"/>
<path d="M113.758 4.68105C114.554 4.68105 115.178 5.30519 115.178 6.10097V9.87701C115.178 10.6572 114.554 11.2969 113.758 11.2969C112.978 11.2969 112.338 10.6572 112.338 9.87701V6.10097C112.338 5.30519 112.978 4.68105 113.758 4.68105ZM113.758 0C110.403 0 107.657 2.73061 107.657 6.10097V9.87701C107.657 13.2474 110.403 15.978 113.758 15.978C117.128 15.978 119.859 13.2474 119.859 9.87701V6.10097C119.859 2.73061 117.128 0 113.758 0Z" fill="white"/>
<path d="M154.212 123.42L114 106.389L73.7884 123.42V496.77H154.212V123.42Z" stroke="#10161D" stroke-width="2" stroke-miterlimit="10" stroke-linecap="round" stroke-linejoin="round"/>
<path d="M145.224 119.629V101.421H82.7385V119.629" stroke="#10161D" stroke-width="2" stroke-miterlimit="10" stroke-linecap="round" stroke-linejoin="round"/>
<path d="M118.968 71.1425H108.561L107.141 101.421H120.388L118.968 71.1425Z" stroke="#10161D" stroke-width="2" stroke-miterlimit="10" stroke-linecap="round" stroke-linejoin="round"/>
<path d="M113.758 71.1363V15.7907" stroke="#10161D" stroke-miterlimit="10" stroke-linecap="round" stroke-linejoin="round"/>
<path d="M113.758 9.87703V6.10098" stroke="#10161D" stroke-miterlimit="10" stroke-linecap="round" stroke-linejoin="round"/>
<path d="M154.202 488.171H73.782V496.768H154.202V488.171Z" stroke="#10161D" stroke-width="2" stroke-miterlimit="10" stroke-linecap="round" stroke-linejoin="round"/>
<path d="M73.7884 423.833L114 106.389L154.212 423.833" stroke="#10161D" stroke-width="2" stroke-miterlimit="10" stroke-linecap="round" stroke-linejoin="round"/>
<path d="M73.782 423.838H154.218" stroke="#10161D" stroke-width="2" stroke-miterlimit="10" stroke-linecap="round" stroke-linejoin="round"/>
<path d="M73.782 412.478H154.218" stroke="#10161D" stroke-width="2" stroke-miterlimit="10" stroke-linecap="round" stroke-linejoin="round"/>
<path d="M76.6687 401.119H151.331" stroke="#10161D" stroke-width="2" stroke-miterlimit="10" stroke-linecap="round" stroke-linejoin="round"/>
<path d="M78.1042 389.76H149.896" stroke="#10161D" stroke-width="2" stroke-miterlimit="10" stroke-linecap="round" stroke-linejoin="round"/>
<path d="M79.5397 378.416H148.46" stroke="#10161D" stroke-width="2" stroke-miterlimit="10" stroke-linecap="round" stroke-linejoin="round"/>
<path d="M81.4121 367.056H146.588" stroke="#10161D" stroke-width="2" stroke-miterlimit="10" stroke-linecap="round" stroke-linejoin="round"/>
<path d="M83.0193 355.697H144.981" stroke="#10161D" stroke-width="2" stroke-miterlimit="10" stroke-linecap="round" stroke-linejoin="round"/>
<path d="M84.3456 344.338H143.654" stroke="#10161D" stroke-width="2" stroke-miterlimit="10" stroke-linecap="round" stroke-linejoin="round"/>
<path d="M85.7655 332.994H142.235" stroke="#10161D" stroke-width="2" stroke-miterlimit="10" stroke-linecap="round" stroke-linejoin="round"/>
<path d="M87.357 321.635H140.643" stroke="#10161D" stroke-width="2" stroke-miterlimit="10" stroke-linecap="round" stroke-linejoin="round"/>
<path d="M88.6053 310.275H139.395" stroke="#10161D" stroke-width="2" stroke-miterlimit="10" stroke-linecap="round" stroke-linejoin="round"/>
<path d="M89.76 298.916H138.24" stroke="#10161D" stroke-width="2" stroke-miterlimit="10" stroke-linecap="round" stroke-linejoin="round"/>
<path d="M91.3516 287.572H136.648" stroke="#10161D" stroke-width="2" stroke-miterlimit="10" stroke-linecap="round" stroke-linejoin="round"/>
<path d="M92.8651 276.213H135.135" stroke="#10161D" stroke-width="2" stroke-miterlimit="10" stroke-linecap="round" stroke-linejoin="round"/>
<path d="M94.4566 264.854H133.543" stroke="#10161D" stroke-width="2" stroke-miterlimit="10" stroke-linecap="round" stroke-linejoin="round"/>
<path d="M95.8766 253.494H132.123" stroke="#10161D" stroke-width="2" stroke-miterlimit="10" stroke-linecap="round" stroke-linejoin="round"/>
<path d="M97.4681 242.151H130.532" stroke="#10161D" stroke-width="2" stroke-miterlimit="10" stroke-linecap="round" stroke-linejoin="round"/>
<path d="M98.9816 230.791H129.018" stroke="#10161D" stroke-width="2" stroke-miterlimit="10" stroke-linecap="round" stroke-linejoin="round"/>
<path d="M100.402 219.432H127.598" stroke="#10161D" stroke-width="2" stroke-miterlimit="10" stroke-linecap="round" stroke-linejoin="round"/>
<path d="M101.728 208.073H126.272" stroke="#10161D" stroke-width="2" stroke-miterlimit="10" stroke-linecap="round" stroke-linejoin="round"/>
<path d="M103.241 196.729H124.759" stroke="#10161D" stroke-width="2" stroke-miterlimit="10" stroke-linecap="round" stroke-linejoin="round"/>
<path d="M104.396 185.369H123.604" stroke="#10161D" stroke-width="2" stroke-miterlimit="10" stroke-linecap="round" stroke-linejoin="round"/>
<path d="M105.629 174.01H122.371" stroke="#10161D" stroke-width="2" stroke-miterlimit="10" stroke-linecap="round" stroke-linejoin="round"/>
<path d="M107.236 162.651H120.764" stroke="#10161D" stroke-width="2" stroke-miterlimit="10" stroke-linecap="round" stroke-linejoin="round"/>
<path d="M108.297 151.307H119.703" stroke="#10161D" stroke-width="2" stroke-miterlimit="10" stroke-linecap="round" stroke-linejoin="round"/>
<path d="M109.982 139.948H118.018" stroke="#10161D" stroke-width="2" stroke-miterlimit="10" stroke-linecap="round" stroke-linejoin="round"/>
<path d="M111.667 128.588H116.333" stroke="#10161D" stroke-width="2" stroke-miterlimit="10" stroke-linecap="round" stroke-linejoin="round"/>
<path d="M82.7384 105.448H145.23" stroke="#10161D" stroke-miterlimit="10" stroke-linecap="round" stroke-linejoin="round"/>
<path d="M81.4121 433.995H85.3754" stroke="#10161D" stroke-width="2" stroke-miterlimit="10"/>
<path d="M90.1657 433.995H94.129" stroke="#10161D" stroke-width="2" stroke-miterlimit="10"/>
<path d="M98.9193 433.995H102.883" stroke="#10161D" stroke-width="2" stroke-miterlimit="10"/>
<path d="M107.673 433.995H111.636" stroke="#10161D" stroke-width="2" stroke-miterlimit="10"/>
<path d="M116.426 433.995H120.39" stroke="#10161D" stroke-width="2" stroke-miterlimit="10"/>
<path d="M125.18 433.995H129.143" stroke="#10161D" stroke-width="2" stroke-miterlimit="10"/>
<path d="M133.933 433.995H137.897" stroke="#10161D" stroke-width="2" stroke-miterlimit="10"/>
<path d="M142.687 433.995H146.65" stroke="#10161D" stroke-width="2" stroke-miterlimit="10"/>
<path d="M81.4121 441.095H85.3754" stroke="#10161D" stroke-width="2" stroke-miterlimit="10"/>
<path d="M90.1657 441.095H94.129" stroke="#10161D" stroke-width="2" stroke-miterlimit="10"/>
<path d="M98.9193 441.095H102.883" stroke="#10161D" stroke-width="2" stroke-miterlimit="10"/>
<path d="M107.673 441.095H111.636" stroke="#10161D" stroke-width="2" stroke-miterlimit="10"/>
<path d="M116.426 441.095H120.39" stroke="#10161D" stroke-width="2" stroke-miterlimit="10"/>
<path d="M125.18 441.095H129.143" stroke="#10161D" stroke-width="2" stroke-miterlimit="10"/>
<path d="M133.933 441.095H137.897" stroke="#10161D" stroke-width="2" stroke-miterlimit="10"/>
<path d="M142.687 441.095H146.65" stroke="#10161D" stroke-width="2" stroke-miterlimit="10"/>
<path d="M81.4121 448.195H85.3754" stroke="#10161D" stroke-width="2" stroke-miterlimit="10"/>
<path d="M90.1657 448.195H94.129" stroke="#10161D" stroke-width="2" stroke-miterlimit="10"/>
<path d="M98.9193 448.195H102.883" stroke="#10161D" stroke-width="2" stroke-miterlimit="10"/>
<path d="M107.673 448.195H111.636" stroke="#10161D" stroke-width="2" stroke-miterlimit="10"/>
<path d="M116.426 448.195H120.39" stroke="#10161D" stroke-width="2" stroke-miterlimit="10"/>
<path d="M125.18 448.195H129.143" stroke="#10161D" stroke-width="2" stroke-miterlimit="10"/>
<path d="M133.933 448.195H137.897" stroke="#10161D" stroke-width="2" stroke-miterlimit="10"/>
<path d="M142.687 448.195H146.65" stroke="#10161D" stroke-width="2" stroke-miterlimit="10"/>
<path d="M81.4121 455.294H85.3754" stroke="#10161D" stroke-width="2" stroke-miterlimit="10"/>
<path d="M90.1657 455.294H94.129" stroke="#10161D" stroke-width="2" stroke-miterlimit="10"/>
<path d="M98.9193 455.294H102.883" stroke="#10161D" stroke-width="2" stroke-miterlimit="10"/>
<path d="M107.673 455.294H111.636" stroke="#10161D" stroke-width="2" stroke-miterlimit="10"/>
<path d="M116.426 455.294H120.39" stroke="#10161D" stroke-width="2" stroke-miterlimit="10"/>
<path d="M125.18 455.294H129.143" stroke="#10161D" stroke-width="2" stroke-miterlimit="10"/>
<path d="M133.933 455.294H137.897" stroke="#10161D" stroke-width="2" stroke-miterlimit="10"/>
<path d="M142.687 455.294H146.65" stroke="#10161D" stroke-width="2" stroke-miterlimit="10"/>
<path d="M81.4121 462.378H85.3754" stroke="#10161D" stroke-width="2" stroke-miterlimit="10"/>
<path d="M90.1657 462.378H94.129" stroke="#10161D" stroke-width="2" stroke-miterlimit="10"/>
<path d="M98.9193 462.378H102.883" stroke="#10161D" stroke-width="2" stroke-miterlimit="10"/>
<path d="M107.673 462.378H111.636" stroke="#10161D" stroke-width="2" stroke-miterlimit="10"/>
<path d="M116.426 462.378H120.39" stroke="#10161D" stroke-width="2" stroke-miterlimit="10"/>
<path d="M125.18 462.378H129.143" stroke="#10161D" stroke-width="2" stroke-miterlimit="10"/>
<path d="M133.933 462.378H137.897" stroke="#10161D" stroke-width="2" stroke-miterlimit="10"/>
<path d="M142.687 462.378H146.65" stroke="#10161D" stroke-width="2" stroke-miterlimit="10"/>
<path d="M81.4121 469.478H85.3754" stroke="#10161D" stroke-width="2" stroke-miterlimit="10"/>
<path d="M90.1657 469.478H94.129" stroke="#10161D" stroke-width="2" stroke-miterlimit="10"/>
<path d="M98.9193 469.478H102.883" stroke="#10161D" stroke-width="2" stroke-miterlimit="10"/>
<path d="M107.673 469.478H111.636" stroke="#10161D" stroke-width="2" stroke-miterlimit="10"/>
<path d="M116.426 469.478H120.39" stroke="#10161D" stroke-width="2" stroke-miterlimit="10"/>
<path d="M125.18 469.478H129.143" stroke="#10161D" stroke-width="2" stroke-miterlimit="10"/>
<path d="M133.933 469.478H137.897" stroke="#10161D" stroke-width="2" stroke-miterlimit="10"/>
<path d="M142.687 469.478H146.65" stroke="#10161D" stroke-width="2" stroke-miterlimit="10"/>
<path d="M81.4121 476.577H85.3754" stroke="#10161D" stroke-width="2" stroke-miterlimit="10"/>
<path d="M90.1657 476.577H94.129" stroke="#10161D" stroke-width="2" stroke-miterlimit="10"/>
<path d="M98.9193 476.577H102.883" stroke="#10161D" stroke-width="2" stroke-miterlimit="10"/>
<path d="M107.673 476.577H111.636" stroke="#10161D" stroke-width="2" stroke-miterlimit="10"/>
<path d="M116.426 476.577H120.39" stroke="#10161D" stroke-width="2" stroke-miterlimit="10"/>
<path d="M125.18 476.577H129.143" stroke="#10161D" stroke-width="2" stroke-miterlimit="10"/>
<path d="M133.933 476.577H137.897" stroke="#10161D" stroke-width="2" stroke-miterlimit="10"/>
<path d="M142.687 476.577H146.65" stroke="#10161D" stroke-width="2" stroke-miterlimit="10"/>
<path d="M149.896 121.598V389.76" stroke="#10161D" stroke-miterlimit="10" stroke-linejoin="round"/>
<path d="M78.1042 121.598V389.76" stroke="#10161D" stroke-miterlimit="10" stroke-linejoin="round"/>
<path d="M74.4841 418.33H153.516" stroke="#10161D" stroke-miterlimit="10" stroke-linejoin="round"/>
<path d="M75.9665 406.565H152.018" stroke="#10161D" stroke-miterlimit="10" stroke-linejoin="round"/>
<path d="M78.1042 395.034H149.896" stroke="#10161D" stroke-miterlimit="10" stroke-linejoin="round"/>
<path d="M78.8531 383.861H149.147" stroke="#10161D" stroke-miterlimit="10" stroke-linejoin="round"/>
<path d="M80.2731 372.674H147.727" stroke="#10161D" stroke-miterlimit="10" stroke-linejoin="round"/>
<path d="M81.6618 361.392H146.338" stroke="#10161D" stroke-miterlimit="10" stroke-linejoin="round"/>
<path d="M83.659 349.908H144.341" stroke="#10161D" stroke-miterlimit="10" stroke-linejoin="round"/>
<path d="M84.5952 338.565H143.405" stroke="#10161D" stroke-miterlimit="10" stroke-linejoin="round"/>
<path d="M86.0308 327.205H141.969" stroke="#10161D" stroke-miterlimit="10" stroke-linejoin="round"/>
<path d="M87.357 315.971H140.643" stroke="#10161D" stroke-miterlimit="10" stroke-linejoin="round"/>
<path d="M88.9174 304.377H139.083" stroke="#10161D" stroke-miterlimit="10" stroke-linejoin="round"/>
<path d="M90.3217 293.252H137.678" stroke="#10161D" stroke-miterlimit="10" stroke-linejoin="round"/>
<path d="M91.7728 281.783H136.212" stroke="#10161D" stroke-miterlimit="10" stroke-linejoin="round"/>
<path d="M93.8325 270.44H134.168" stroke="#10161D" stroke-miterlimit="10" stroke-linejoin="round"/>
<path d="M94.6595 259.08H133.341" stroke="#10161D" stroke-miterlimit="10" stroke-linejoin="round"/>
<path d="M96.1106 247.612H131.889" stroke="#10161D" stroke-miterlimit="10" stroke-linejoin="round"/>
<path d="M97.4681 236.486H130.532" stroke="#10161D" stroke-miterlimit="10" stroke-linejoin="round"/>
<path d="M98.9504 225.127H129.05" stroke="#10161D" stroke-miterlimit="10" stroke-linejoin="round"/>
<path d="M100.402 213.659H127.598" stroke="#10161D" stroke-miterlimit="10" stroke-linejoin="round"/>
<path d="M101.853 202.299H126.147" stroke="#10161D" stroke-miterlimit="10" stroke-linejoin="round"/>
<path d="M103.288 190.956H124.712" stroke="#10161D" stroke-miterlimit="10" stroke-linejoin="round"/>
<path d="M104.693 179.83H123.307" stroke="#10161D" stroke-miterlimit="10" stroke-linejoin="round"/>
<path d="M106.128 168.486H121.872" stroke="#10161D" stroke-miterlimit="10" stroke-linejoin="round"/>
<path d="M107.595 157.018H120.405" stroke="#10161D" stroke-miterlimit="10" stroke-linejoin="round"/>
<path d="M108.999 145.893H119.001" stroke="#10161D" stroke-miterlimit="10" stroke-linejoin="round"/>
<path d="M110.435 134.533H117.565" stroke="#10161D" stroke-miterlimit="10" stroke-linejoin="round"/>
<path d="M115.252 71.1425H112.277L111.872 101.421H115.657L115.252 71.1425Z" stroke="#10161D" stroke-miterlimit="10" stroke-linecap="round" stroke-linejoin="round"/>
<path d="M73.782 492.477H154.218" stroke="#10161D" stroke-miterlimit="10" stroke-linecap="round" stroke-linejoin="round"/>
<path d="M1062.45 495.98C1061.62 495.98 1060.95 495.31 1060.95 494.48L1060.97 487.29C1057.77 486.26 1055.49 483.23 1055.5 479.78C1055.5 479.55 1055.96 473.3 1057.01 467.05C1058.6 457.55 1060.52 453.49 1063.43 453.49C1066.34 453.5 1068.25 457.56 1069.81 467.07C1070.83 473.27 1071.28 479.57 1071.28 479.8C1071.27 483.25 1068.99 486.27 1065.78 487.3L1065.77 494.49C1065.77 494.89 1065.61 495.27 1065.33 495.55C1065.05 495.83 1064.67 495.99 1064.27 495.99L1062.45 495.98Z" fill="white"/>
<path d="M1063.43 455C1068.03 455 1069.77 479.56 1069.77 479.81C1069.77 483.02 1067.38 485.68 1064.28 486.12L1064.27 494.49L1062.45 494.48L1062.47 486.11C1059.37 485.66 1056.99 483 1057 479.79C1057 479.54 1058.83 455 1063.43 455ZM1063.43 452C1059.58 452 1057.29 456.29 1055.53 466.8C1054.51 472.89 1054 479.36 1054 479.78C1053.99 483.5 1056.22 486.81 1059.46 488.31L1059.45 494.48C1059.45 496.13 1060.79 497.48 1062.45 497.48L1064.26 497.49C1064.27 497.49 1064.27 497.49 1064.27 497.49C1065.07 497.49 1065.83 497.17 1066.39 496.61C1066.95 496.05 1067.27 495.29 1067.27 494.49L1067.28 488.33C1070.54 486.83 1072.77 483.53 1072.78 479.81C1072.78 479.55 1072.34 473.24 1071.29 466.83C1069.56 456.3 1067.29 452 1063.43 452Z" fill="white"/>
<path d="M1068.86 479.8C1068.86 482.83 1066.4 485.28 1063.38 485.28C1060.35 485.27 1057.9 482.81 1057.91 479.79C1057.91 476.76 1060.4 455.9 1063.43 455.91C1066.45 455.91 1068.87 476.78 1068.86 479.8Z" stroke="black" stroke-width="2" stroke-miterlimit="10" stroke-linejoin="round"/>
<path d="M1063.38 485.28L1063.36 494.48" stroke="black" stroke-width="2" stroke-miterlimit="10" stroke-linejoin="round"/>
<path d="M1476.22 496H5.78082C-10.1144 496 -23 521.296 -23 552.5C-23 583.704 -10.1144 609 5.78082 609H1476.22C1492.11 609 1505 583.704 1505 552.5C1505 521.296 1492.11 496 1476.22 496Z" fill="white" stroke="#10161D" stroke-width="2" stroke-linecap="round" stroke-linejoin="round"/>
</svg>
