<svg width="10" height="30" viewBox="0 0 10 30" fill="none" xmlns="http://www.w3.org/2000/svg">
<path fill-rule="evenodd" clip-rule="evenodd" d="M6.95697 0.976013C7.18897 0.976013 7.32498 1.09199 7.32498 1.34399L6.58997 11.408C6.58997 11.66 6.33797 11.524 6.58997 11.408L8.89297 10.44C9.14497 10.44 9.25996 10.556 9.14496 10.808L3.66797 29.718C3.66797 29.97 3.55096 29.97 3.55096 29.602L5.36996 16.982C5.36996 16.75 4.40196 17.234 4.28696 17.234L1.13297 18.454C0.996965 18.454 0.880981 18.318 0.880981 18.086L2.33197 3.16302C2.33197 2.91102 2.58397 2.67901 2.69897 2.54401L6.95697 0.976013Z" fill="#595959"/>
</svg>
